<svg xmlns="http://www.w3.org/2000/svg" xmlns:xlink="http://www.w3.org/1999/xlink" width="2000" zoomAndPan="magnify" viewBox="0 0 1500 1499.999933" height="2000" preserveAspectRatio="xMidYMid meet" version="1.0"><defs><g/><clipPath id="8b7a9d368a"><rect x="0" width="964" y="0" height="1351"/></clipPath></defs><rect x="-150" width="1800" fill="#ffffff" y="-149.999993" height="1799.99992" fill-opacity="1"/><rect x="-150" width="1800" fill="#f5f0e8" y="-149.999993" height="1799.99992" fill-opacity="1"/><g transform="matrix(1, 0, 0, 1, 389, 74)"><g clip-path="url(#8b7a9d368a)"><g fill="#000000" fill-opacity="1"><g transform="translate(0.524101, 1059.531041)"><g><path d="M 203.625 -351.625 L 508.34375 -351.625 L 508.34375 -539.296875 C 508.34375 -572.828125 506.242188 -594.914062 502.046875 -605.5625 C 498.828125 -613.625 492.054688 -620.554688 481.734375 -626.359375 C 467.867188 -634.097656 453.195312 -637.96875 437.71875 -637.96875 L 414.515625 -637.96875 L 414.515625 -655.859375 L 695.03125 -655.859375 L 695.03125 -637.96875 L 671.828125 -637.96875 C 656.347656 -637.96875 641.675781 -634.257812 627.8125 -626.84375 C 617.488281 -621.6875 610.472656 -613.863281 606.765625 -603.375 C 603.054688 -592.894531 601.203125 -571.535156 601.203125 -539.296875 L 601.203125 -116.078125 C 601.203125 -82.867188 603.300781 -60.941406 607.5 -50.296875 C 610.71875 -42.234375 617.328125 -35.300781 627.328125 -29.5 C 641.515625 -21.757812 656.347656 -17.890625 671.828125 -17.890625 L 695.03125 -17.890625 L 695.03125 0 L 414.515625 0 L 414.515625 -17.890625 L 437.71875 -17.890625 C 464.488281 -17.890625 484 -25.789062 496.25 -41.59375 C 504.3125 -51.914062 508.34375 -76.742188 508.34375 -116.078125 L 508.34375 -315.84375 L 203.625 -315.84375 L 203.625 -116.078125 C 203.625 -82.867188 205.722656 -60.941406 209.921875 -50.296875 C 213.140625 -42.234375 219.910156 -35.300781 230.234375 -29.5 C 244.097656 -21.757812 258.769531 -17.890625 274.25 -17.890625 L 297.9375 -17.890625 L 297.9375 0 L 16.921875 0 L 16.921875 -17.890625 L 40.140625 -17.890625 C 67.222656 -17.890625 86.894531 -25.789062 99.15625 -41.59375 C 106.894531 -51.914062 110.765625 -76.742188 110.765625 -116.078125 L 110.765625 -539.296875 C 110.765625 -572.828125 108.664062 -594.914062 104.46875 -605.5625 C 101.25 -613.625 94.640625 -620.554688 84.640625 -626.359375 C 70.453125 -634.097656 55.617188 -637.96875 40.140625 -637.96875 L 16.921875 -637.96875 L 16.921875 -655.859375 L 297.9375 -655.859375 L 297.9375 -637.96875 L 274.25 -637.96875 C 258.769531 -637.96875 244.097656 -634.257812 230.234375 -626.84375 C 220.234375 -621.6875 213.296875 -613.863281 209.421875 -603.375 C 205.554688 -592.894531 203.625 -571.535156 203.625 -539.296875 Z M 203.625 -351.625 "/></g></g></g></g></g></svg>