<svg xmlns="http://www.w3.org/2000/svg" xmlns:xlink="http://www.w3.org/1999/xlink" zoomAndPan="magnify" preserveAspectRatio="xMidYMid meet" version="1.0" viewBox="669.98 590.89 160.01 263.75"><defs><g/><clipPath id="7a02c87033"><rect x="0" width="193" y="0" height="392"/></clipPath></defs><g transform="matrix(1, 0, 0, 1, 653, 554)"><g clip-path="url(#7a02c87033)"><g fill="#000000" fill-opacity="1"><g transform="translate(2.915246, 300.639891)"><g><path d="M 14.0625 0 L 14.0625 -256.375 L 47.125 -263.75 L 47.125 -175.84375 L 87.5625 -175.84375 C 94.59375 -175.84375 100.570312 -173.320312 105.5 -168.28125 C 110.425781 -163.238281 112.890625 -157.195312 112.890625 -150.15625 L 112.890625 0 L 79.828125 0 L 79.828125 -130.125 C 79.828125 -133.632812 78.59375 -136.617188 76.125 -139.078125 C 73.664062 -141.546875 70.679688 -142.78125 67.171875 -142.78125 L 47.125 -142.78125 L 47.125 0 Z M 14.0625 0 "/></g></g></g><g fill="#000000" fill-opacity="1"><g transform="translate(129.863462, 300.639891)"><g><path d="M 14.0625 0 L 14.0625 -33.0625 L 47.125 -33.0625 L 47.125 0 Z M 14.0625 0 "/></g></g></g></g></g></svg>