<svg xmlns="http://www.w3.org/2000/svg" xmlns:xlink="http://www.w3.org/1999/xlink" width="2000" zoomAndPan="magnify" viewBox="0 0 1500 1499.999933" height="2000" preserveAspectRatio="xMidYMid meet" version="1.0"><defs><g/><clipPath id="35df6f1fc9"><rect x="0" width="1260" y="0" height="392"/></clipPath></defs><g transform="matrix(1, 0, 0, 1, 121, 554)"><g clip-path="url(#35df6f1fc9)"><g fill="#ffffff" fill-opacity="1"><g transform="translate(0.933194, 300.639891)"><g><path d="M 14.0625 0 L 14.0625 -256.375 L 47.125 -263.75 L 47.125 -175.84375 L 87.5625 -175.84375 C 94.59375 -175.84375 100.570312 -173.320312 105.5 -168.28125 C 110.425781 -163.238281 112.890625 -157.195312 112.890625 -150.15625 L 112.890625 0 L 79.828125 0 L 79.828125 -130.125 C 79.828125 -133.632812 78.59375 -136.617188 76.125 -139.078125 C 73.664062 -141.546875 70.679688 -142.78125 67.171875 -142.78125 L 47.125 -142.78125 L 47.125 0 Z M 14.0625 0 "/></g></g></g><g fill="#ffffff" fill-opacity="1"><g transform="translate(127.88141, 300.639891)"><g><path d="M 39.734375 0 C 32.703125 0 26.664062 -2.457031 21.625 -7.375 C 16.582031 -12.300781 14.0625 -18.398438 14.0625 -25.671875 L 14.0625 -78.78125 C 14.0625 -85.8125 16.582031 -91.847656 21.625 -96.890625 C 26.664062 -101.929688 32.703125 -104.453125 39.734375 -104.453125 L 67.171875 -104.453125 C 70.921875 -104.453125 74.023438 -105.679688 76.484375 -108.140625 C 78.953125 -110.597656 80.1875 -113.585938 80.1875 -117.109375 L 80.1875 -130.125 C 80.1875 -133.632812 78.953125 -136.617188 76.484375 -139.078125 C 74.023438 -141.546875 70.921875 -142.78125 67.171875 -142.78125 L 29.1875 -142.78125 L 36.578125 -175.84375 L 87.5625 -175.84375 C 94.59375 -175.84375 100.628906 -173.320312 105.671875 -168.28125 C 110.710938 -163.238281 113.234375 -157.195312 113.234375 -150.15625 L 113.234375 0 Z M 59.78125 -33.0625 L 80.1875 -33.0625 L 80.1875 -71.390625 L 59.78125 -71.390625 C 56.269531 -71.390625 53.28125 -70.15625 50.8125 -67.6875 C 48.351562 -65.226562 47.125 -62.242188 47.125 -58.734375 L 47.125 -45.71875 C 47.125 -42.195312 48.351562 -39.207031 50.8125 -36.75 C 53.28125 -34.289062 56.269531 -33.0625 59.78125 -33.0625 Z M 59.78125 -33.0625 "/></g></g></g><g fill="#ffffff" fill-opacity="1"><g transform="translate(255.181285, 300.639891)"><g><path d="M 14.0625 0 L 14.0625 -175.84375 L 87.5625 -175.84375 C 94.59375 -175.84375 100.628906 -173.320312 105.671875 -168.28125 C 110.710938 -163.238281 113.234375 -157.195312 113.234375 -150.15625 L 113.234375 -111.828125 L 80.1875 -119.21875 L 80.1875 -129.765625 C 80.1875 -133.285156 78.953125 -136.332031 76.484375 -138.90625 C 74.023438 -141.488281 71.035156 -142.78125 67.515625 -142.78125 L 47.125 -142.78125 L 47.125 0 Z M 14.0625 0 "/></g></g></g><g fill="#ffffff" fill-opacity="1"><g transform="translate(382.48116, 300.639891)"><g><path d="M 14.0625 0 L 14.0625 -175.84375 L 87.5625 -175.84375 C 94.59375 -175.84375 100.628906 -173.320312 105.671875 -168.28125 C 110.710938 -163.238281 113.234375 -157.195312 113.234375 -150.15625 L 113.234375 -111.828125 L 80.1875 -119.21875 L 80.1875 -129.765625 C 80.1875 -133.285156 78.953125 -136.332031 76.484375 -138.90625 C 74.023438 -141.488281 71.035156 -142.78125 67.515625 -142.78125 L 47.125 -142.78125 L 47.125 0 Z M 14.0625 0 "/></g></g></g><g fill="#ffffff" fill-opacity="1"><g transform="translate(509.781035, 300.639891)"><g><path d="M 14.0625 -222.953125 L 14.0625 -256.015625 L 47.125 -263.75 L 47.125 -230.703125 Z M 14.765625 0 L 14.765625 -168.09375 L 47.828125 -175.84375 L 47.828125 0 Z M 14.765625 0 "/></g></g></g><g fill="#ffffff" fill-opacity="1"><g transform="translate(571.672684, 300.639891)"><g><path d="M 18.984375 0 L 18.984375 -175.84375 L 92.484375 -175.84375 C 99.285156 -175.84375 105.265625 -173.378906 110.421875 -168.453125 C 115.578125 -163.523438 118.15625 -157.546875 118.15625 -150.515625 L 118.15625 0 L 85.109375 0 L 85.109375 -130.125 C 85.109375 -133.875 83.816406 -136.921875 81.234375 -139.265625 C 78.660156 -141.609375 75.726562 -142.78125 72.4375 -142.78125 L 52.046875 -142.78125 L 52.046875 0 Z M 18.984375 0 "/></g></g></g><g fill="#ffffff" fill-opacity="1"><g transform="translate(708.81898, 300.639891)"><g><path d="M 39.734375 87.921875 C 32.941406 87.921875 26.960938 85.457031 21.796875 80.53125 C 16.640625 75.601562 14.0625 69.507812 14.0625 62.25 L 14.0625 23.90625 L 47.125 31.65625 L 47.125 42.203125 C 47.125 45.484375 48.410156 48.410156 50.984375 50.984375 C 53.566406 53.566406 56.5 54.859375 59.78125 54.859375 L 67.515625 54.859375 C 71.265625 54.859375 74.3125 53.566406 76.65625 50.984375 C 79.007812 48.410156 80.1875 45.484375 80.1875 42.203125 L 80.1875 0 L 39.734375 0 C 32.941406 0 26.960938 -2.457031 21.796875 -7.375 C 16.640625 -12.300781 14.0625 -18.398438 14.0625 -25.671875 L 14.0625 -150.15625 C 14.0625 -157.425781 16.640625 -163.523438 21.796875 -168.453125 C 26.960938 -173.378906 32.941406 -175.84375 39.734375 -175.84375 L 113.234375 -175.84375 L 113.234375 62.25 C 113.234375 69.507812 110.769531 75.601562 105.84375 80.53125 C 100.925781 85.457031 94.832031 87.921875 87.5625 87.921875 Z M 59.78125 -33.0625 L 67.515625 -33.0625 C 71.265625 -33.0625 74.3125 -34.347656 76.65625 -36.921875 C 79.007812 -39.503906 80.1875 -42.4375 80.1875 -45.71875 L 80.1875 -142.78125 L 59.78125 -142.78125 C 56.5 -142.78125 53.566406 -141.609375 50.984375 -139.265625 C 48.410156 -136.921875 47.125 -133.875 47.125 -130.125 L 47.125 -45.71875 C 47.125 -42.4375 48.410156 -39.503906 50.984375 -36.921875 C 53.566406 -34.347656 56.5 -33.0625 59.78125 -33.0625 Z M 59.78125 -33.0625 "/></g></g></g><g fill="#ffffff" fill-opacity="1"><g transform="translate(836.118855, 300.639891)"><g><path d="M 14.0625 0 L 14.0625 -256.015625 L 47.125 -263.40625 L 47.125 -175.84375 L 88.96875 -175.84375 L 81.234375 -142.78125 L 47.125 -142.78125 L 47.125 0 Z M 14.0625 0 "/></g></g></g><g fill="#ffffff" fill-opacity="1"><g transform="translate(928.604736, 300.639891)"><g><path d="M 42.546875 0 C 35.285156 0 29.191406 -2.519531 24.265625 -7.5625 C 19.335938 -12.601562 16.875 -18.640625 16.875 -25.671875 L 16.875 -150.15625 C 16.875 -157.195312 19.335938 -163.238281 24.265625 -168.28125 C 29.191406 -173.320312 35.285156 -175.84375 42.546875 -175.84375 L 90.375 -175.84375 C 97.414062 -175.84375 103.394531 -173.320312 108.3125 -168.28125 C 113.238281 -163.238281 115.703125 -157.195312 115.703125 -150.15625 L 115.703125 -25.671875 C 115.703125 -18.640625 113.238281 -12.601562 108.3125 -7.5625 C 103.394531 -2.519531 97.414062 0 90.375 0 Z M 62.59375 -33.0625 L 69.984375 -33.0625 C 73.492188 -33.0625 76.539062 -34.289062 79.125 -36.75 C 81.707031 -39.207031 83 -42.195312 83 -45.71875 L 83 -130.125 C 83 -133.632812 81.707031 -136.617188 79.125 -139.078125 C 76.539062 -141.546875 73.492188 -142.78125 69.984375 -142.78125 L 62.59375 -142.78125 C 59.082031 -142.78125 56.09375 -141.546875 53.625 -139.078125 C 51.164062 -136.617188 49.9375 -133.632812 49.9375 -130.125 L 49.9375 -45.71875 C 49.9375 -42.195312 51.164062 -39.207031 53.625 -36.75 C 56.09375 -34.289062 59.082031 -33.0625 62.59375 -33.0625 Z M 62.59375 -33.0625 "/></g></g></g><g fill="#ffffff" fill-opacity="1"><g transform="translate(1058.717873, 300.639891)"><g><path d="M 18.984375 0 L 18.984375 -175.84375 L 92.484375 -175.84375 C 99.285156 -175.84375 105.265625 -173.378906 110.421875 -168.453125 C 115.578125 -163.523438 118.15625 -157.546875 118.15625 -150.515625 L 118.15625 0 L 85.109375 0 L 85.109375 -130.125 C 85.109375 -133.875 83.816406 -136.921875 81.234375 -139.265625 C 78.660156 -141.609375 75.726562 -142.78125 72.4375 -142.78125 L 52.046875 -142.78125 L 52.046875 0 Z M 18.984375 0 "/></g></g></g><g fill="#ffffff" fill-opacity="1"><g transform="translate(1195.864169, 300.639891)"><g><path d="M 14.0625 0 L 14.0625 -33.0625 L 47.125 -33.0625 L 47.125 0 Z M 14.0625 0 "/></g></g></g></g></g></svg>