<svg xmlns="http://www.w3.org/2000/svg" xmlns:xlink="http://www.w3.org/1999/xlink" width="2000" zoomAndPan="magnify" viewBox="0 0 1500 1499.999933" height="2000" preserveAspectRatio="xMidYMid meet" version="1.0"><defs><g/><clipPath id="9560aaf35b"><path d="M 12 0.078125 L 151 0.078125 L 151 232 L 12 232 Z M 12 0.078125 " clip-rule="nonzero"/></clipPath><clipPath id="1717da40ab"><rect x="0" width="1227" y="0" height="324"/></clipPath></defs><g transform="matrix(1, 0, 0, 1, 132, 586)"><g clip-path="url(#1717da40ab)"><g clip-path="url(#9560aaf35b)"><g fill="#222222" fill-opacity="1"><g transform="translate(4.53653, 229.550961)"><g><path d="M 8.015625 -228.859375 L 38.671875 -228.859375 C 35.617188 -225.804688 33.597656 -221.226562 32.609375 -215.125 C 31.617188 -209.019531 31.160156 -202.15625 31.234375 -194.53125 C 31.316406 -186.90625 31.359375 -179.273438 31.359375 -171.640625 L 31.359375 -27.921875 C 33.796875 -32.347656 36.726562 -38.453125 40.15625 -46.234375 C 43.59375 -54.015625 47.445312 -62.671875 51.71875 -72.203125 C 55.988281 -81.742188 60.679688 -91.316406 65.796875 -100.921875 C 70.910156 -110.535156 76.289062 -119.382812 81.9375 -127.46875 C 87.582031 -135.5625 93.53125 -142.085938 99.78125 -147.046875 C 106.039062 -152.003906 112.445312 -154.484375 119 -154.484375 C 124.800781 -154.484375 129.070312 -152.800781 131.8125 -149.4375 C 134.5625 -146.082031 136.394531 -141.429688 137.3125 -135.484375 C 138.226562 -129.535156 138.6875 -122.519531 138.6875 -114.4375 L 138.6875 -57.21875 C 138.6875 -49.582031 138.644531 -41.953125 138.5625 -34.328125 C 138.488281 -26.703125 138.945312 -19.835938 139.9375 -13.734375 C 140.9375 -7.628906 142.960938 -3.050781 146.015625 0 L 115.34375 0 C 118.394531 -3.050781 120.414062 -7.628906 121.40625 -13.734375 C 122.394531 -19.835938 122.851562 -26.703125 122.78125 -34.328125 C 122.707031 -41.953125 122.671875 -49.582031 122.671875 -57.21875 L 122.671875 -126.78125 C 122.671875 -126.78125 122.671875 -127.617188 122.671875 -129.296875 C 122.671875 -130.984375 122.363281 -132.894531 121.75 -135.03125 C 121.144531 -137.164062 120 -139.070312 118.3125 -140.75 C 116.632812 -142.425781 114.195312 -143.265625 111 -143.265625 C 105.957031 -143.265625 100.84375 -140.628906 95.65625 -135.359375 C 90.46875 -130.097656 85.242188 -123.15625 79.984375 -114.53125 C 74.722656 -105.914062 69.570312 -96.421875 64.53125 -86.046875 C 59.5 -75.671875 54.691406 -65.296875 50.109375 -54.921875 C 45.535156 -44.546875 41.300781 -35.046875 37.40625 -26.421875 C 33.519531 -17.804688 30.128906 -10.867188 27.234375 -5.609375 C 24.335938 -0.347656 21.972656 2.28125 20.140625 2.28125 C 18.160156 2.28125 16.863281 1.40625 16.25 -0.34375 C 15.632812 -2.09375 15.328125 -3.882812 15.328125 -5.71875 L 15.328125 -171.640625 C 15.328125 -179.273438 15.363281 -186.90625 15.4375 -194.53125 C 15.519531 -202.15625 15.066406 -209.019531 14.078125 -215.125 C 13.085938 -221.226562 11.066406 -225.804688 8.015625 -228.859375 Z M 8.015625 -228.859375 "/></g></g></g></g><g fill="#222222" fill-opacity="1"><g transform="translate(142.303125, 229.550961)"><g><path d="M 11.4375 -21.734375 C 11.4375 -30.285156 13.34375 -38.222656 17.15625 -45.546875 C 20.976562 -52.867188 26.09375 -59.503906 32.5 -65.453125 C 38.90625 -71.398438 46.070312 -76.660156 54 -81.234375 C 61.9375 -85.816406 70.101562 -89.785156 78.5 -93.140625 C 86.894531 -96.503906 94.941406 -99.175781 102.640625 -101.15625 C 110.347656 -103.132812 117.097656 -104.429688 122.890625 -105.046875 C 122.285156 -112.671875 120.644531 -119.800781 117.96875 -126.4375 C 115.300781 -133.082031 111.03125 -138.460938 105.15625 -142.578125 C 99.28125 -146.703125 91.15625 -148.765625 80.78125 -148.765625 C 71.632812 -148.765625 62.976562 -147.046875 54.8125 -143.609375 C 46.644531 -140.171875 39.394531 -136.085938 33.0625 -131.359375 C 26.738281 -126.628906 21.59375 -122.285156 17.625 -118.328125 L 17.625 -138 C 28.457031 -143.34375 38.445312 -147.460938 47.59375 -150.359375 C 56.75 -153.253906 66.671875 -154.703125 77.359375 -154.703125 C 91.546875 -154.703125 103.210938 -152.144531 112.359375 -147.03125 C 121.515625 -141.925781 128.304688 -134.988281 132.734375 -126.21875 C 137.160156 -117.445312 139.375 -107.414062 139.375 -96.125 L 139.375 -57.4375 C 139.375 -49.8125 139.332031 -42.179688 139.25 -34.546875 C 139.175781 -26.921875 139.632812 -20.054688 140.625 -13.953125 C 141.625 -7.859375 143.648438 -3.285156 146.703125 -0.234375 L 54.921875 -0.234375 C 48.515625 -0.234375 42.675781 -0.191406 37.40625 -0.109375 C 32.144531 -0.0351562 27.566406 -0.492188 23.671875 -1.484375 C 19.785156 -2.472656 16.773438 -4.492188 14.640625 -7.546875 C 12.503906 -10.597656 11.4375 -15.328125 11.4375 -21.734375 Z M 123.359375 -99.09375 C 116.492188 -98.332031 108.863281 -96.691406 100.46875 -94.171875 C 92.070312 -91.660156 83.675781 -88.34375 75.28125 -84.21875 C 66.894531 -80.101562 59.15625 -75.296875 52.0625 -69.796875 C 44.96875 -64.304688 39.285156 -58.28125 35.015625 -51.71875 C 30.742188 -45.15625 28.609375 -38.0625 28.609375 -30.4375 C 28.609375 -15.945312 35.320312 -8.703125 48.75 -8.703125 L 123.359375 -8.703125 L 123.359375 -91.765625 C 123.359375 -92.992188 123.359375 -94.21875 123.359375 -95.4375 C 123.359375 -96.65625 123.359375 -97.875 123.359375 -99.09375 Z M 123.359375 -99.09375 "/></g></g></g><g fill="#222222" fill-opacity="1"><g transform="translate(280.756313, 229.550961)"><g><path d="M 15.328125 -94.984375 C 15.328125 -102.609375 15.363281 -110.234375 15.4375 -117.859375 C 15.519531 -125.492188 15.066406 -132.359375 14.078125 -138.453125 C 13.085938 -144.554688 11.066406 -149.132812 8.015625 -152.1875 L 31.359375 -152.1875 L 31.359375 -29.75 C 35.171875 -39.0625 39.171875 -49.320312 43.359375 -60.53125 C 47.554688 -71.75 52.054688 -82.847656 56.859375 -93.828125 C 61.671875 -104.816406 67.085938 -114.882812 73.109375 -124.03125 C 79.140625 -133.1875 85.894531 -140.550781 93.375 -146.125 C 100.851562 -151.695312 109.242188 -154.484375 118.546875 -154.484375 C 123.734375 -154.484375 127.890625 -154.097656 131.015625 -153.328125 C 134.148438 -152.566406 135.71875 -152.1875 135.71875 -152.1875 L 135.71875 -133.203125 C 135.71875 -133.203125 134.191406 -133.734375 131.140625 -134.796875 C 128.085938 -135.867188 123.816406 -136.40625 118.328125 -136.40625 C 109.472656 -136.40625 101.421875 -133.882812 94.171875 -128.84375 C 86.929688 -123.8125 80.375 -117.175781 74.5 -108.9375 C 68.625 -100.695312 63.320312 -91.65625 58.59375 -81.8125 C 53.863281 -71.976562 49.550781 -62.140625 45.65625 -52.296875 C 41.769531 -42.453125 38.300781 -33.410156 35.25 -25.171875 C 32.195312 -16.929688 29.410156 -10.296875 26.890625 -5.265625 C 24.367188 -0.234375 21.96875 2.28125 19.6875 2.28125 C 17.851562 2.28125 16.664062 1.40625 16.125 -0.34375 C 15.59375 -2.09375 15.328125 -3.882812 15.328125 -5.71875 Z M 15.328125 -94.984375 "/></g></g></g><g fill="#222222" fill-opacity="1"><g transform="translate(404.791757, 229.550961)"><g><path d="M 15.328125 -94.984375 C 15.328125 -102.609375 15.363281 -110.234375 15.4375 -117.859375 C 15.519531 -125.492188 15.066406 -132.359375 14.078125 -138.453125 C 13.085938 -144.554688 11.066406 -149.132812 8.015625 -152.1875 L 31.359375 -152.1875 L 31.359375 -29.75 C 35.171875 -39.0625 39.171875 -49.320312 43.359375 -60.53125 C 47.554688 -71.75 52.054688 -82.847656 56.859375 -93.828125 C 61.671875 -104.816406 67.085938 -114.882812 73.109375 -124.03125 C 79.140625 -133.1875 85.894531 -140.550781 93.375 -146.125 C 100.851562 -151.695312 109.242188 -154.484375 118.546875 -154.484375 C 123.734375 -154.484375 127.890625 -154.097656 131.015625 -153.328125 C 134.148438 -152.566406 135.71875 -152.1875 135.71875 -152.1875 L 135.71875 -133.203125 C 135.71875 -133.203125 134.191406 -133.734375 131.140625 -134.796875 C 128.085938 -135.867188 123.816406 -136.40625 118.328125 -136.40625 C 109.472656 -136.40625 101.421875 -133.882812 94.171875 -128.84375 C 86.929688 -123.8125 80.375 -117.175781 74.5 -108.9375 C 68.625 -100.695312 63.320312 -91.65625 58.59375 -81.8125 C 53.863281 -71.976562 49.550781 -62.140625 45.65625 -52.296875 C 41.769531 -42.453125 38.300781 -33.410156 35.25 -25.171875 C 32.195312 -16.929688 29.410156 -10.296875 26.890625 -5.265625 C 24.367188 -0.234375 21.96875 2.28125 19.6875 2.28125 C 17.851562 2.28125 16.664062 1.40625 16.125 -0.34375 C 15.59375 -2.09375 15.328125 -3.882812 15.328125 -5.71875 Z M 15.328125 -94.984375 "/></g></g></g><g fill="#222222" fill-opacity="1"><g transform="translate(528.8272, 229.550961)"><g><path d="M 39.59375 0 L 8.921875 0 C 11.972656 -3.050781 13.992188 -7.628906 14.984375 -13.734375 C 15.984375 -19.835938 16.441406 -26.703125 16.359375 -34.328125 C 16.285156 -41.953125 16.25 -49.582031 16.25 -57.21875 L 16.25 -94.984375 C 16.25 -102.609375 16.285156 -110.234375 16.359375 -117.859375 C 16.441406 -125.492188 15.984375 -132.359375 14.984375 -138.453125 C 13.992188 -144.554688 11.972656 -149.132812 8.921875 -152.1875 L 32.265625 -152.1875 L 32.265625 -57.21875 C 32.265625 -49.582031 32.226562 -41.953125 32.15625 -34.328125 C 32.082031 -26.703125 32.539062 -19.835938 33.53125 -13.734375 C 34.519531 -7.628906 36.539062 -3.050781 39.59375 0 Z M 21.515625 -173.9375 C 17.703125 -173.9375 14.5 -175.234375 11.90625 -177.828125 C 9.3125 -180.421875 8.015625 -183.625 8.015625 -187.4375 C 8.015625 -191.09375 9.3125 -194.21875 11.90625 -196.8125 C 14.5 -199.40625 17.703125 -200.703125 21.515625 -200.703125 C 25.171875 -200.703125 28.296875 -199.40625 30.890625 -196.8125 C 33.484375 -194.21875 34.78125 -191.09375 34.78125 -187.4375 C 34.78125 -183.625 33.484375 -180.421875 30.890625 -177.828125 C 28.296875 -175.234375 25.171875 -173.9375 21.515625 -173.9375 Z M 21.515625 -173.9375 "/></g></g></g><g fill="#222222" fill-opacity="1"><g transform="translate(560.177515, 229.550961)"><g><path d="M 15.328125 -94.984375 C 15.328125 -102.609375 15.363281 -110.234375 15.4375 -117.859375 C 15.519531 -125.492188 15.066406 -132.359375 14.078125 -138.453125 C 13.085938 -144.554688 11.066406 -149.132812 8.015625 -152.1875 L 31.359375 -152.1875 L 31.359375 -27.921875 C 33.796875 -32.347656 36.726562 -38.453125 40.15625 -46.234375 C 43.59375 -54.015625 47.445312 -62.671875 51.71875 -72.203125 C 55.988281 -81.742188 60.679688 -91.316406 65.796875 -100.921875 C 70.910156 -110.535156 76.289062 -119.382812 81.9375 -127.46875 C 87.582031 -135.5625 93.53125 -142.085938 99.78125 -147.046875 C 106.039062 -152.003906 112.445312 -154.484375 119 -154.484375 C 124.800781 -154.484375 129.070312 -152.800781 131.8125 -149.4375 C 134.5625 -146.082031 136.394531 -141.429688 137.3125 -135.484375 C 138.226562 -129.535156 138.6875 -122.519531 138.6875 -114.4375 L 138.6875 -57.21875 C 138.6875 -49.582031 138.644531 -41.953125 138.5625 -34.328125 C 138.488281 -26.703125 138.945312 -19.835938 139.9375 -13.734375 C 140.9375 -7.628906 142.960938 -3.050781 146.015625 0 L 115.34375 0 C 118.394531 -3.050781 120.414062 -7.628906 121.40625 -13.734375 C 122.394531 -19.835938 122.851562 -26.703125 122.78125 -34.328125 C 122.707031 -41.953125 122.671875 -49.582031 122.671875 -57.21875 L 122.671875 -126.78125 C 122.671875 -126.78125 122.671875 -127.617188 122.671875 -129.296875 C 122.671875 -130.984375 122.363281 -132.894531 121.75 -135.03125 C 121.144531 -137.164062 120 -139.070312 118.3125 -140.75 C 116.632812 -142.425781 114.195312 -143.265625 111 -143.265625 C 105.957031 -143.265625 100.84375 -140.628906 95.65625 -135.359375 C 90.46875 -130.097656 85.242188 -123.15625 79.984375 -114.53125 C 74.722656 -105.914062 69.613281 -96.421875 64.65625 -86.046875 C 59.695312 -75.671875 54.925781 -65.296875 50.34375 -54.921875 C 45.769531 -44.546875 41.535156 -35.046875 37.640625 -26.421875 C 33.753906 -17.804688 30.359375 -10.867188 27.453125 -5.609375 C 24.554688 -0.347656 22.195312 2.28125 20.375 2.28125 C 18.382812 2.28125 17.046875 1.40625 16.359375 -0.34375 C 15.671875 -2.09375 15.328125 -3.882812 15.328125 -5.71875 Z M 15.328125 -94.984375 "/></g></g></g><g fill="#222222" fill-opacity="1"><g transform="translate(697.94411, 229.550961)"><g><path d="M 5.71875 63.859375 C 5.71875 57.140625 7.316406 50.691406 10.515625 44.515625 C 13.722656 38.335938 17.957031 32.578125 23.21875 27.234375 C 28.488281 21.890625 34.289062 17.003906 40.625 12.578125 C 46.957031 8.160156 53.285156 4.234375 59.609375 0.796875 C 65.941406 -2.628906 71.78125 -5.410156 77.125 -7.546875 C 72.851562 -7.546875 68.390625 -7.546875 63.734375 -7.546875 C 59.078125 -7.546875 53.851562 -7.546875 48.0625 -7.546875 C 45.3125 -7.546875 43.019531 -8.347656 41.1875 -9.953125 C 39.363281 -11.554688 38.453125 -13.578125 38.453125 -16.015625 C 38.453125 -20.140625 40.015625 -23.078125 43.140625 -24.828125 C 46.265625 -26.585938 50.421875 -27.769531 55.609375 -28.375 C 60.796875 -28.988281 66.515625 -29.597656 72.765625 -30.203125 C 79.023438 -30.816406 85.285156 -32.039062 91.546875 -33.875 C 90.472656 -33.71875 89.398438 -33.640625 88.328125 -33.640625 C 87.265625 -33.640625 86.203125 -33.640625 85.140625 -33.640625 C 68.046875 -33.640625 54.003906 -36.460938 43.015625 -42.109375 C 32.035156 -47.753906 23.910156 -55.191406 18.640625 -64.421875 C 13.378906 -73.648438 10.75 -83.53125 10.75 -94.0625 C 10.75 -104.738281 13.378906 -114.65625 18.640625 -123.8125 C 23.910156 -132.96875 32.035156 -140.367188 43.015625 -146.015625 C 54.003906 -151.660156 68.046875 -154.484375 85.140625 -154.484375 C 85.597656 -154.484375 86.054688 -154.484375 86.515625 -154.484375 C 86.972656 -154.484375 87.425781 -154.484375 87.875 -154.484375 C 94.289062 -154.484375 99.59375 -154.484375 103.78125 -154.484375 C 107.976562 -154.484375 111.832031 -154.554688 115.34375 -154.703125 C 118.851562 -154.859375 122.820312 -155.085938 127.25 -155.390625 C 129.226562 -155.546875 132.160156 -156.117188 136.046875 -157.109375 C 139.941406 -158.097656 143.875 -159.546875 147.84375 -161.453125 C 151.8125 -163.367188 154.863281 -165.625 157 -168.21875 L 157 -154.484375 C 154.25 -152.953125 150.773438 -151.878906 146.578125 -151.265625 C 142.390625 -150.660156 138.539062 -150.359375 135.03125 -150.359375 L 115.796875 -150.359375 C 125.867188 -147.460938 134.109375 -143.113281 140.515625 -137.3125 C 146.921875 -131.519531 151.6875 -124.921875 154.8125 -117.515625 C 157.945312 -110.117188 159.515625 -102.300781 159.515625 -94.0625 C 159.515625 -83.070312 156.726562 -72.847656 151.15625 -63.390625 C 145.59375 -53.929688 136.859375 -46.53125 124.953125 -41.1875 C 113.359375 -35.394531 102.71875 -31.238281 93.03125 -28.71875 C 83.34375 -26.207031 74.988281 -24.53125 67.96875 -23.6875 C 60.945312 -22.84375 55.488281 -22.039062 51.59375 -21.28125 C 47.707031 -20.519531 45.765625 -18.921875 45.765625 -16.484375 C 45.765625 -14.648438 46.832031 -13.691406 48.96875 -13.609375 C 51.113281 -13.535156 54.09375 -13.425781 57.90625 -13.28125 L 136.171875 -13.28125 C 139.984375 -13.28125 143.375 -12.972656 146.34375 -12.359375 C 149.320312 -11.742188 151.648438 -10.21875 153.328125 -7.78125 C 155.015625 -5.34375 155.859375 -1.453125 155.859375 3.890625 C 155.859375 10.753906 153.832031 18.226562 149.78125 26.3125 C 145.738281 34.40625 140.207031 42.34375 133.1875 50.125 C 126.175781 57.90625 118.09375 65.035156 108.9375 71.515625 C 99.78125 78.003906 90.015625 83.191406 79.640625 87.078125 C 69.265625 90.972656 58.738281 92.921875 48.0625 92.921875 C 41.039062 92.921875 34.285156 92.039062 27.796875 90.28125 C 21.316406 88.53125 16.015625 85.519531 11.890625 81.25 C 7.773438 76.976562 5.71875 71.179688 5.71875 63.859375 Z M 85.140625 -148.53125 C 72.015625 -148.53125 61.21875 -145.972656 52.75 -140.859375 C 44.28125 -135.753906 38.023438 -129.082031 33.984375 -120.84375 C 29.941406 -112.601562 27.921875 -103.675781 27.921875 -94.0625 C 27.921875 -84.445312 29.941406 -75.519531 33.984375 -67.28125 C 38.023438 -59.039062 44.28125 -52.363281 52.75 -47.25 C 61.21875 -42.144531 72.015625 -39.59375 85.140625 -39.59375 C 98.410156 -39.59375 109.238281 -42.144531 117.625 -47.25 C 126.019531 -52.363281 132.238281 -59.039062 136.28125 -67.28125 C 140.320312 -75.519531 142.34375 -84.445312 142.34375 -94.0625 C 142.34375 -103.675781 140.320312 -112.601562 136.28125 -120.84375 C 132.238281 -129.082031 126.019531 -135.753906 117.625 -140.859375 C 109.238281 -145.972656 98.410156 -148.53125 85.140625 -148.53125 Z M 129.53125 -7.546875 C 124.039062 -7.546875 117.363281 -6.628906 109.5 -4.796875 C 101.644531 -2.972656 93.289062 -0.382812 84.4375 2.96875 C 75.59375 6.332031 66.859375 10.265625 58.234375 14.765625 C 49.617188 19.265625 41.765625 24.144531 34.671875 29.40625 C 27.578125 34.664062 21.929688 40.195312 17.734375 46 C 13.535156 51.800781 11.4375 57.675781 11.4375 63.625 C 11.4375 68.195312 12.925781 72.046875 15.90625 75.171875 C 18.882812 78.304688 22.625 80.671875 27.125 82.265625 C 31.625 83.867188 36.160156 84.671875 40.734375 84.671875 C 48.054688 84.671875 55.644531 83.144531 63.5 80.09375 C 71.363281 77.050781 79.109375 72.9375 86.734375 67.75 C 94.367188 62.5625 101.503906 56.800781 108.140625 50.46875 C 114.773438 44.132812 120.6875 37.6875 125.875 31.125 C 131.0625 24.5625 135.101562 18.304688 138 12.359375 C 140.894531 6.410156 142.34375 1.300781 142.34375 -2.96875 C 142.34375 -4.957031 141.65625 -6.21875 140.28125 -6.75 C 138.914062 -7.28125 137.238281 -7.546875 135.25 -7.546875 C 134.1875 -7.546875 133.195312 -7.546875 132.28125 -7.546875 C 131.363281 -7.546875 130.445312 -7.546875 129.53125 -7.546875 Z M 129.53125 -7.546875 "/></g></g></g><g fill="#222222" fill-opacity="1"><g transform="translate(852.645777, 229.550961)"><g><path d="M 0 -147.390625 C 4.882812 -147.992188 9.269531 -150.238281 13.15625 -154.125 C 17.050781 -158.019531 20.410156 -162.710938 23.234375 -168.203125 C 26.054688 -173.703125 28.191406 -179.160156 29.640625 -184.578125 C 31.085938 -189.992188 31.8125 -194.53125 31.8125 -198.1875 L 32.734375 -198.1875 L 32.734375 -149.90625 L 46.921875 -149.90625 L 46.921875 -146.46875 L 32.734375 -146.46875 L 32.734375 -21.734375 C 32.734375 -18.992188 33.113281 -16.054688 33.875 -12.921875 C 34.632812 -9.796875 35.929688 -7.128906 37.765625 -4.921875 C 39.597656 -2.710938 42.113281 -1.609375 45.3125 -1.609375 C 47.300781 -1.609375 49.054688 -1.832031 50.578125 -2.28125 C 52.097656 -2.738281 53.625 -3.273438 55.15625 -3.890625 L 55.84375 -1.828125 C 51.570312 0.910156 46.6875 2.28125 41.1875 2.28125 C 37.226562 2.28125 33.335938 1.097656 29.515625 -1.265625 C 25.703125 -3.628906 22.578125 -7.210938 20.140625 -12.015625 C 17.703125 -16.816406 16.484375 -22.878906 16.484375 -30.203125 L 16.484375 -146.46875 L 0 -146.46875 Z M 0 -147.390625 "/></g></g></g><g fill="#222222" fill-opacity="1"><g transform="translate(887.657744, 229.550961)"><g><path d="M 88.796875 2.28125 C 78.117188 2.28125 68.085938 0.257812 58.703125 -3.78125 C 49.316406 -7.820312 41.078125 -13.425781 33.984375 -20.59375 C 26.890625 -27.769531 21.359375 -36.125 17.390625 -45.65625 C 13.421875 -55.195312 11.4375 -65.378906 11.4375 -76.203125 C 11.4375 -87.035156 13.421875 -97.179688 17.390625 -106.640625 C 21.359375 -116.109375 26.890625 -124.425781 33.984375 -131.59375 C 41.078125 -138.757812 49.316406 -144.363281 58.703125 -148.40625 C 68.085938 -152.457031 78.117188 -154.484375 88.796875 -154.484375 C 99.472656 -154.484375 109.460938 -152.457031 118.765625 -148.40625 C 128.078125 -144.363281 136.28125 -138.757812 143.375 -131.59375 C 150.46875 -124.425781 156 -116.109375 159.96875 -106.640625 C 163.9375 -97.179688 165.921875 -87.035156 165.921875 -76.203125 C 165.921875 -65.378906 163.9375 -55.195312 159.96875 -45.65625 C 156 -36.125 150.46875 -27.769531 143.375 -20.59375 C 136.28125 -13.425781 128.078125 -7.820312 118.765625 -3.78125 C 109.460938 0.257812 99.472656 2.28125 88.796875 2.28125 Z M 28.609375 -75.984375 C 28.609375 -65.910156 30.25 -56.488281 33.53125 -47.71875 C 36.8125 -38.945312 41.273438 -31.238281 46.921875 -24.59375 C 52.566406 -17.957031 59.007812 -12.769531 66.25 -9.03125 C 73.5 -5.300781 81.015625 -3.4375 88.796875 -3.4375 C 96.578125 -3.4375 104.050781 -5.300781 111.21875 -9.03125 C 118.394531 -12.769531 124.804688 -17.957031 130.453125 -24.59375 C 136.097656 -31.238281 140.5625 -38.945312 143.84375 -47.71875 C 147.125 -56.488281 148.765625 -65.910156 148.765625 -75.984375 C 148.765625 -86.054688 147.125 -95.476562 143.84375 -104.25 C 140.5625 -113.019531 136.097656 -120.757812 130.453125 -127.46875 C 124.804688 -134.1875 118.394531 -139.414062 111.21875 -143.15625 C 104.050781 -146.894531 96.578125 -148.765625 88.796875 -148.765625 C 81.015625 -148.765625 73.5 -146.894531 66.25 -143.15625 C 59.007812 -139.414062 52.566406 -134.1875 46.921875 -127.46875 C 41.273438 -120.757812 36.8125 -113.019531 33.53125 -104.25 C 30.25 -95.476562 28.609375 -86.054688 28.609375 -75.984375 Z M 28.609375 -75.984375 "/></g></g></g><g fill="#222222" fill-opacity="1"><g transform="translate(1048.767315, 229.550961)"><g><path d="M 15.328125 -94.984375 C 15.328125 -102.609375 15.363281 -110.234375 15.4375 -117.859375 C 15.519531 -125.492188 15.066406 -132.359375 14.078125 -138.453125 C 13.085938 -144.554688 11.066406 -149.132812 8.015625 -152.1875 L 31.359375 -152.1875 L 31.359375 -27.921875 C 33.796875 -32.347656 36.726562 -38.453125 40.15625 -46.234375 C 43.59375 -54.015625 47.445312 -62.671875 51.71875 -72.203125 C 55.988281 -81.742188 60.679688 -91.316406 65.796875 -100.921875 C 70.910156 -110.535156 76.289062 -119.382812 81.9375 -127.46875 C 87.582031 -135.5625 93.53125 -142.085938 99.78125 -147.046875 C 106.039062 -152.003906 112.445312 -154.484375 119 -154.484375 C 124.800781 -154.484375 129.070312 -152.800781 131.8125 -149.4375 C 134.5625 -146.082031 136.394531 -141.429688 137.3125 -135.484375 C 138.226562 -129.535156 138.6875 -122.519531 138.6875 -114.4375 L 138.6875 -57.21875 C 138.6875 -49.582031 138.644531 -41.953125 138.5625 -34.328125 C 138.488281 -26.703125 138.945312 -19.835938 139.9375 -13.734375 C 140.9375 -7.628906 142.960938 -3.050781 146.015625 0 L 115.34375 0 C 118.394531 -3.050781 120.414062 -7.628906 121.40625 -13.734375 C 122.394531 -19.835938 122.851562 -26.703125 122.78125 -34.328125 C 122.707031 -41.953125 122.671875 -49.582031 122.671875 -57.21875 L 122.671875 -126.78125 C 122.671875 -126.78125 122.671875 -127.617188 122.671875 -129.296875 C 122.671875 -130.984375 122.363281 -132.894531 121.75 -135.03125 C 121.144531 -137.164062 120 -139.070312 118.3125 -140.75 C 116.632812 -142.425781 114.195312 -143.265625 111 -143.265625 C 105.957031 -143.265625 100.84375 -140.628906 95.65625 -135.359375 C 90.46875 -130.097656 85.242188 -123.15625 79.984375 -114.53125 C 74.722656 -105.914062 69.613281 -96.421875 64.65625 -86.046875 C 59.695312 -75.671875 54.925781 -65.296875 50.34375 -54.921875 C 45.769531 -44.546875 41.535156 -35.046875 37.640625 -26.421875 C 33.753906 -17.804688 30.359375 -10.867188 27.453125 -5.609375 C 24.554688 -0.347656 22.195312 2.28125 20.375 2.28125 C 18.382812 2.28125 17.046875 1.40625 16.359375 -0.34375 C 15.671875 -2.09375 15.328125 -3.882812 15.328125 -5.71875 Z M 15.328125 -94.984375 "/></g></g></g><g fill="#222222" fill-opacity="1"><g transform="translate(1186.533848, 229.550961)"><g><path d="M 9.15625 -10.984375 C 9.15625 -14.648438 10.453125 -17.78125 13.046875 -20.375 C 15.640625 -22.96875 18.765625 -24.265625 22.421875 -24.265625 C 26.085938 -24.265625 29.21875 -22.96875 31.8125 -20.375 C 34.40625 -17.78125 35.703125 -14.648438 35.703125 -10.984375 C 35.703125 -7.328125 34.40625 -4.203125 31.8125 -1.609375 C 29.21875 0.984375 26.085938 2.28125 22.421875 2.28125 C 18.765625 2.28125 15.640625 0.984375 13.046875 -1.609375 C 10.453125 -4.203125 9.15625 -7.328125 9.15625 -10.984375 Z M 9.15625 -10.984375 "/></g></g></g></g></g></svg>