<svg xmlns="http://www.w3.org/2000/svg" xmlns:xlink="http://www.w3.org/1999/xlink" width="2000" zoomAndPan="magnify" viewBox="0 0 1500 1499.999933" height="2000" preserveAspectRatio="xMidYMid meet" version="1.0"><defs><g/><clipPath id="59a8a05580"><rect x="0" width="1180" y="0" height="366"/></clipPath></defs><g transform="matrix(1, 0, 0, 1, 161, 567)"><g clip-path="url(#59a8a05580)"><g fill="#000000" fill-opacity="1"><g transform="translate(0.548755, 281.039709)"><g><path d="M 13.1875 0 L 13.1875 -240.203125 L 44.15625 -247.125 L 44.15625 -164.75 L 82.046875 -164.75 C 88.640625 -164.75 94.238281 -162.382812 98.84375 -157.65625 C 103.457031 -152.9375 105.765625 -147.285156 105.765625 -140.703125 L 105.765625 0 L 74.796875 0 L 74.796875 -121.921875 C 74.796875 -125.210938 73.640625 -128.007812 71.328125 -130.3125 C 69.023438 -132.625 66.226562 -133.78125 62.9375 -133.78125 L 44.15625 -133.78125 L 44.15625 0 Z M 13.1875 0 "/></g></g></g><g fill="#000000" fill-opacity="1"><g transform="translate(119.48967, 281.039709)"><g><path d="M 37.234375 0 C 30.640625 0 24.984375 -2.304688 20.265625 -6.921875 C 15.546875 -11.535156 13.1875 -17.242188 13.1875 -24.046875 L 13.1875 -73.8125 C 13.1875 -80.394531 15.546875 -86.046875 20.265625 -90.765625 C 24.984375 -95.492188 30.640625 -97.859375 37.234375 -97.859375 L 62.9375 -97.859375 C 66.445312 -97.859375 69.351562 -99.007812 71.65625 -101.3125 C 73.96875 -103.625 75.125 -106.425781 75.125 -109.71875 L 75.125 -121.921875 C 75.125 -125.210938 73.96875 -128.007812 71.65625 -130.3125 C 69.351562 -132.625 66.445312 -133.78125 62.9375 -133.78125 L 27.34375 -133.78125 L 34.265625 -164.75 L 82.046875 -164.75 C 88.640625 -164.75 94.296875 -162.382812 99.015625 -157.65625 C 103.734375 -152.9375 106.09375 -147.285156 106.09375 -140.703125 L 106.09375 0 Z M 56.015625 -30.96875 L 75.125 -30.96875 L 75.125 -66.890625 L 56.015625 -66.890625 C 52.722656 -66.890625 49.921875 -65.734375 47.609375 -63.421875 C 45.304688 -61.117188 44.15625 -58.320312 44.15625 -55.03125 L 44.15625 -42.828125 C 44.15625 -39.535156 45.304688 -36.734375 47.609375 -34.421875 C 49.921875 -32.117188 52.722656 -30.96875 56.015625 -30.96875 Z M 56.015625 -30.96875 "/></g></g></g><g fill="#000000" fill-opacity="1"><g transform="translate(238.760061, 281.039709)"><g><path d="M 13.1875 0 L 13.1875 -164.75 L 82.046875 -164.75 C 88.640625 -164.75 94.296875 -162.382812 99.015625 -157.65625 C 103.734375 -152.9375 106.09375 -147.285156 106.09375 -140.703125 L 106.09375 -104.78125 L 75.125 -111.703125 L 75.125 -121.578125 C 75.125 -124.878906 73.96875 -127.738281 71.65625 -130.15625 C 69.351562 -132.570312 66.554688 -133.78125 63.265625 -133.78125 L 44.15625 -133.78125 L 44.15625 0 Z M 13.1875 0 "/></g></g></g><g fill="#000000" fill-opacity="1"><g transform="translate(358.030453, 281.039709)"><g><path d="M 13.1875 0 L 13.1875 -164.75 L 82.046875 -164.75 C 88.640625 -164.75 94.296875 -162.382812 99.015625 -157.65625 C 103.734375 -152.9375 106.09375 -147.285156 106.09375 -140.703125 L 106.09375 -104.78125 L 75.125 -111.703125 L 75.125 -121.578125 C 75.125 -124.878906 73.96875 -127.738281 71.65625 -130.15625 C 69.351562 -132.570312 66.554688 -133.78125 63.265625 -133.78125 L 44.15625 -133.78125 L 44.15625 0 Z M 13.1875 0 "/></g></g></g><g fill="#000000" fill-opacity="1"><g transform="translate(477.300844, 281.039709)"><g><path d="M 13.1875 -208.90625 L 13.1875 -239.875 L 44.15625 -247.125 L 44.15625 -216.15625 Z M 13.84375 0 L 13.84375 -157.5 L 44.8125 -164.75 L 44.8125 0 Z M 13.84375 0 "/></g></g></g><g fill="#000000" fill-opacity="1"><g transform="translate(535.288656, 281.039709)"><g><path d="M 17.796875 0 L 17.796875 -164.75 L 86.65625 -164.75 C 93.03125 -164.75 98.632812 -162.441406 103.46875 -157.828125 C 108.300781 -153.210938 110.71875 -147.613281 110.71875 -141.03125 L 110.71875 0 L 79.734375 0 L 79.734375 -121.921875 C 79.734375 -125.429688 78.523438 -128.285156 76.109375 -130.484375 C 73.691406 -132.679688 70.945312 -133.78125 67.875 -133.78125 L 48.765625 -133.78125 L 48.765625 0 Z M 17.796875 0 "/></g></g></g><g fill="#000000" fill-opacity="1"><g transform="translate(663.784402, 281.039709)"><g><path d="M 37.234375 82.375 C 30.859375 82.375 25.253906 80.066406 20.421875 75.453125 C 15.597656 70.835938 13.1875 65.128906 13.1875 58.328125 L 13.1875 22.40625 L 44.15625 29.65625 L 44.15625 39.546875 C 44.15625 42.617188 45.363281 45.363281 47.78125 47.78125 C 50.195312 50.195312 52.941406 51.40625 56.015625 51.40625 L 63.265625 51.40625 C 66.773438 51.40625 69.628906 50.195312 71.828125 47.78125 C 74.023438 45.363281 75.125 42.617188 75.125 39.546875 L 75.125 0 L 37.234375 0 C 30.859375 0 25.253906 -2.304688 20.421875 -6.921875 C 15.597656 -11.535156 13.1875 -17.242188 13.1875 -24.046875 L 13.1875 -140.703125 C 13.1875 -147.503906 15.597656 -153.210938 20.421875 -157.828125 C 25.253906 -162.441406 30.859375 -164.75 37.234375 -164.75 L 106.09375 -164.75 L 106.09375 58.328125 C 106.09375 65.128906 103.785156 70.835938 99.171875 75.453125 C 94.566406 80.066406 88.859375 82.375 82.046875 82.375 Z M 56.015625 -30.96875 L 63.265625 -30.96875 C 66.773438 -30.96875 69.628906 -32.175781 71.828125 -34.59375 C 74.023438 -37.007812 75.125 -39.753906 75.125 -42.828125 L 75.125 -133.78125 L 56.015625 -133.78125 C 52.941406 -133.78125 50.195312 -132.679688 47.78125 -130.484375 C 45.363281 -128.285156 44.15625 -125.429688 44.15625 -121.921875 L 44.15625 -42.828125 C 44.15625 -39.753906 45.363281 -37.007812 47.78125 -34.59375 C 50.195312 -32.175781 52.941406 -30.96875 56.015625 -30.96875 Z M 56.015625 -30.96875 "/></g></g></g><g fill="#000000" fill-opacity="1"><g transform="translate(783.054794, 281.039709)"><g><path d="M 13.1875 0 L 13.1875 -239.875 L 44.15625 -246.796875 L 44.15625 -164.75 L 83.359375 -164.75 L 76.109375 -133.78125 L 44.15625 -133.78125 L 44.15625 0 Z M 13.1875 0 "/></g></g></g><g fill="#000000" fill-opacity="1"><g transform="translate(869.707096, 281.039709)"><g><path d="M 39.875 0 C 33.0625 0 27.347656 -2.359375 22.734375 -7.078125 C 18.117188 -11.804688 15.8125 -17.460938 15.8125 -24.046875 L 15.8125 -140.703125 C 15.8125 -147.285156 18.117188 -152.9375 22.734375 -157.65625 C 27.347656 -162.382812 33.0625 -164.75 39.875 -164.75 L 84.6875 -164.75 C 91.269531 -164.75 96.867188 -162.382812 101.484375 -157.65625 C 106.097656 -152.9375 108.40625 -147.285156 108.40625 -140.703125 L 108.40625 -24.046875 C 108.40625 -17.460938 106.097656 -11.804688 101.484375 -7.078125 C 96.867188 -2.359375 91.269531 0 84.6875 0 Z M 58.65625 -30.96875 L 65.578125 -30.96875 C 68.867188 -30.96875 71.722656 -32.117188 74.140625 -34.421875 C 76.554688 -36.734375 77.765625 -39.535156 77.765625 -42.828125 L 77.765625 -121.921875 C 77.765625 -125.210938 76.554688 -128.007812 74.140625 -130.3125 C 71.722656 -132.625 68.867188 -133.78125 65.578125 -133.78125 L 58.65625 -133.78125 C 55.351562 -133.78125 52.546875 -132.625 50.234375 -130.3125 C 47.929688 -128.007812 46.78125 -125.210938 46.78125 -121.921875 L 46.78125 -42.828125 C 46.78125 -39.535156 47.929688 -36.734375 50.234375 -34.421875 C 52.546875 -32.117188 55.351562 -30.96875 58.65625 -30.96875 Z M 58.65625 -30.96875 "/></g></g></g><g fill="#000000" fill-opacity="1"><g transform="translate(991.613303, 281.039709)"><g><path d="M 17.796875 0 L 17.796875 -164.75 L 86.65625 -164.75 C 93.03125 -164.75 98.632812 -162.441406 103.46875 -157.828125 C 108.300781 -153.210938 110.71875 -147.613281 110.71875 -141.03125 L 110.71875 0 L 79.734375 0 L 79.734375 -121.921875 C 79.734375 -125.429688 78.523438 -128.285156 76.109375 -130.484375 C 73.691406 -132.679688 70.945312 -133.78125 67.875 -133.78125 L 48.765625 -133.78125 L 48.765625 0 Z M 17.796875 0 "/></g></g></g><g fill="#000000" fill-opacity="1"><g transform="translate(1120.109049, 281.039709)"><g><path d="M 13.1875 0 L 13.1875 -30.96875 L 44.15625 -30.96875 L 44.15625 0 Z M 13.1875 0 "/></g></g></g></g></g></svg>