<svg xmlns="http://www.w3.org/2000/svg" xmlns:xlink="http://www.w3.org/1999/xlink" zoomAndPan="magnify" preserveAspectRatio="xMidYMid meet" version="1.0" viewBox="278.06 397.98 941.88 910.97"><defs><g/><clipPath id="62c2a0dded"><rect x="0" width="1246" y="0" height="1500"/></clipPath></defs><g transform="matrix(1, 0, 0, 1, 254, 0.000000000000112861)"><g clip-path="url(#62c2a0dded)"><g fill="#000000" fill-opacity="1"><g transform="translate(0.547316, 1308.953597)"><g><path d="M 282.828125 -488.40625 L 706.0625 -488.40625 L 706.0625 -749.0625 C 706.0625 -795.644531 703.148438 -826.320312 697.328125 -841.09375 C 692.847656 -852.289062 683.445312 -861.921875 669.125 -869.984375 C 649.863281 -880.734375 629.484375 -886.109375 607.984375 -886.109375 L 575.734375 -886.109375 L 575.734375 -910.96875 L 965.390625 -910.96875 L 965.390625 -886.109375 L 933.140625 -886.109375 C 911.640625 -886.109375 891.257812 -880.957031 872 -870.65625 C 857.664062 -863.488281 847.925781 -852.628906 842.78125 -838.078125 C 837.632812 -823.523438 835.0625 -793.851562 835.0625 -749.0625 L 835.0625 -161.234375 C 835.0625 -115.097656 837.96875 -84.644531 843.78125 -69.875 C 848.257812 -58.675781 857.441406 -49.046875 871.328125 -40.984375 C 891.035156 -30.234375 911.640625 -24.859375 933.140625 -24.859375 L 965.390625 -24.859375 L 965.390625 0 L 575.734375 0 L 575.734375 -24.859375 L 607.984375 -24.859375 C 645.160156 -24.859375 672.253906 -35.832031 689.265625 -57.78125 C 700.460938 -72.101562 706.0625 -106.585938 706.0625 -161.234375 L 706.0625 -438.6875 L 282.828125 -438.6875 L 282.828125 -161.234375 C 282.828125 -115.097656 285.738281 -84.644531 291.5625 -69.875 C 296.039062 -58.675781 305.445312 -49.046875 319.78125 -40.984375 C 339.039062 -30.234375 359.421875 -24.859375 380.921875 -24.859375 L 413.828125 -24.859375 L 413.828125 0 L 23.515625 0 L 23.515625 -24.859375 L 55.765625 -24.859375 C 93.378906 -24.859375 120.695312 -35.832031 137.71875 -57.78125 C 148.46875 -72.101562 153.84375 -106.585938 153.84375 -161.234375 L 153.84375 -749.0625 C 153.84375 -795.644531 150.929688 -826.320312 145.109375 -841.09375 C 140.628906 -852.289062 131.445312 -861.921875 117.5625 -869.984375 C 97.851562 -880.734375 77.253906 -886.109375 55.765625 -886.109375 L 23.515625 -886.109375 L 23.515625 -910.96875 L 413.828125 -910.96875 L 413.828125 -886.109375 L 380.921875 -886.109375 C 359.421875 -886.109375 339.039062 -880.957031 319.78125 -870.65625 C 305.894531 -863.488281 296.265625 -852.628906 290.890625 -838.078125 C 285.515625 -823.523438 282.828125 -793.851562 282.828125 -749.0625 Z M 282.828125 -488.40625 "/></g></g></g></g></g></svg>